{"title":"Je Deshe - Khokababu(2012)(Bengali Movie) Youtube Ee-encode 1080","uid":8275524,"size":154330737,"categoryP":"video","categoryS":"music_videos","magnet":"?xt=urn:btih:2d6987fc6eecda8a001529f38b4cca75f2669711&amp;dn=Je+Deshe+-+Khokababu%282012%29%28Bengali+Movie%29+Youtube+Ee-encode+1080&amp;tr=udp%3A%2F%2Ftracker.openbittorrent.com%3A80&amp;tr=udp%3A%2F%2Fopen.demonii.com%3A1337&amp;tr=udp%3A%2F%2Ftracker.coppersurfer.tk%3A6969&amp;tr=udp%3A%2F%2Fexodus.desync.com%3A6969","seeders":0,"leechers":0,"uploader":"Bethun","files":-1,"time":1363707806,"description":"Screenshot &lt;a href=&quot;\nhttp://s20.postimage.org/xfzp72zfx/Je_Deshe_Khokababu_2012_Bengali_Movie_Youtub.jpg&quot; rel=&quot;nofollow&quot; target=&quot;_NEW&quot;&gt;\nhttp://s20.postimage.org/xfzp72zfx/Je_Deshe_Khokababu_2012_Bengali_Movie_Youtub.jpg&lt;/a&gt;\n\n\nWiki &lt;a href=&quot;\nhttp://en.wikipedia.org/wiki/Khokababu&quot; rel=&quot;nofollow&quot; target=&quot;_NEW&quot;&gt;\nhttp://en.wikipedia.org/wiki/Khokababu&lt;/a&gt;\n\n\nMedia Info:\n\nGeneral\nFormat : Matroska\nFormat version : Version 2\nFile size : 147 MiB\nDuration : 3mn 57s\nOverall bit rate mode : Variable\nOverall bit rate : 5 193 Kbps\nWriting application : Lavf54.61.104\nWriting library : Lavf54.61.104\n\nVideo\nID : 1\nFormat : AVC\nFormat/Info : Advanced Video Codec\nFormat profile : &lt;a class=&quot;__cf_email__&quot; href=&quot;/cdn-cgi/l/email-protection&quot; data-cfemail=&quot;5018393738101c647e61&quot;&gt;[email&amp;#160;protected]&lt;/a&gt;&lt;script cf-hash='f9e31' type=&quot;text/javascript&quot;&gt;\n/* &lt;![CDATA[ */!function(){try{var t=&quot;currentScript&quot;in document?document.currentScript:function(){for(var t=document.getElementsByTagName(&quot;script&quot;),e=t.length;e--;)if(t[e].getAttribute(&quot;cf-hash&quot;))return t[e]}();if(t&amp;&amp;t.previousSibling){var e,r,n,i,c=t.previousSibling,a=c.getAttribute(&quot;data-cfemail&quot;);if(a){for(e=&quot;&quot;,r=parseInt(a.substr(0,2),16),n=2;a.length-n;n+=2)i=parseInt(a.substr(n,2),16)^r,e+=String.fromCharCode(i);e=document.createTextNode(e),c.parentNode.replaceChild(e,c)}}}catch(u){}}();/* ]]&gt; */&lt;/script&gt;\nFormat settings, CABAC : Yes\nFormat settings, ReFrames : 2 frames\nCodec ID : V_MPEG4/ISO/AVC\nDuration : 3mn 57s\nBit rate mode : Variable\nBit rate : 5 000 Kbps\nMaximum bit rate : 24.0 Mbps\nWidth : 1 920 pixels\nHeight : 1 080 pixels\nDisplay aspect ratio : 2.2:1\nFrame rate mode : Constant\nFrame rate : 24.000 fps\nColor space : YUV\nChroma subsampling : 4:2:0\nBit depth : 8 bits\nScan type : Progressive\nBits/(Pixel*Frame) : 0.100\nStream size : 139 MiB (94%)\nWriting library : x264 core 129 r2230\nDefault : Yes\nForced : No\n\nAudio\nID : 2\nFormat : AC-3\nFormat/Info : Audio Coding 3\nMode extension : CM (complete main)\nFormat settings, Endianness : Big\nCodec ID : A_AC3\nDuration : 3mn 57s\nBit rate mode : Constant\nBit rate : 192 Kbps\nChannel(s) : 2 channels\nChannel positions : Front: L R\nSampling rate : 48.0 KHz\nBit depth : 16 bits\nCompression mode : Lossy\nDelay relative to video : 1mn 5s\nStream size : 5.44 MiB (4%)\nDefault : Yes\nForced : No","torrent":{"xt":"urn:btih:2d6987fc6eecda8a001529f38b4cca75f2669711","amp;dn":"Je+Deshe+-+Khokababu%282012%29%28Bengali+Movie%29+Youtube+Ee-encode+1080","amp;tr":["udp%3A%2F%2Ftracker.openbittorrent.com%3A80","udp%3A%2F%2Fopen.demonii.com%3A1337","udp%3A%2F%2Ftracker.coppersurfer.tk%3A6969","udp%3A%2F%2Fexodus.desync.com%3A6969"],"infoHash":"2d6987fc6eecda8a001529f38b4cca75f2669711","infoHashBuffer":{"type":"Buffer","data":[45,105,135,252,110,236,218,138,0,21,41,243,139,76,202,117,242,102,151,17]},"announce":[],"urlList":[]}}